# xmcd
#
# Track frame offsets:
#	150
#	22608
#	42944
#	79662
#	102634
#	118379
#	133134
#	142548
#	160396
#	181349
#	199188
#	211204
#	226583
#	244434
#	259698
#	273651
#
# Disc length: 4027 seconds
#
# Revision: 0
# Processed by: cddbd v1.5.1PL0 Copyright (c) Steve Scherf et al.
# Submitted via: dBpowerAMP V4.0
#
DISCID=de0fb910
DTITLE=Jeff Tweedy - Lounge Ax, Chicago, IL Disc 1
DYEAR=1999
DGENRE=Country
TTITLE0=A Shot In The Arm
TTITLE1=I'm Always In Love
TTITLE2=Sunken Treasure
TTITLE3=Ripple
TTITLE4=Hesitating Beayty
TTITLE5=Something Good
TTITLE6=Bob Dylan's 49th Beard
TTITLE7=Dreaming
TTITLE8=She's A Jar
TTITLE9=Lost Love
TTITLE10=Black Eye
TTITLE11=In a Future Age
TTITLE12=Can't Stand It
TTITLE13=How to Fight Loneliness
TTITLE14=Pieholden Suite
TTITLE15=Candyfloss
EXTD=
EXTT0=
EXTT1=
EXTT2=
EXTT3=
EXTT4=
EXTT5=
EXTT6=
EXTT7=
EXTT8=
EXTT9=
EXTT10=
EXTT11=
EXTT12=
EXTT13=
EXTT14=
EXTT15=
PLAYORDER=
